<?xml version="1.0" encoding="utf-8"?>
<!-- Generator: Adobe Illustrator 22.1.0, SVG Export Plug-In . SVG Version: 6.00 Build 0)  -->
<svg version="1.1" id="Layer_1" xmlns="http://www.w3.org/2000/svg" xmlns:xlink="http://www.w3.org/1999/xlink" x="0px" y="0px"
	 viewBox="0 0 53 44.2" style="enable-background:new 0 0 53 44.2;" xml:space="preserve">
<style type="text/css">
	.st0{enable-background:new    ;}
</style>
<g>
	<rect x="31.1" y="7" width="2.4" height="32.3"/>
	<rect x="20.3" y="13.8" width="12.7" height="1.7"/>
	<rect x="20.3" y="23.5" width="12.7" height="1.7"/>
	<rect x="20.3" y="33.2" width="12.7" height="1.7"/>
	<polygon points="22.2,14.2 21.2,15.7 31.1,24.8 32,23.4 	"/>
	<polygon points="31.1,14.2 32,15.7 22.2,24.8 21.2,23.4 	"/>
	<polygon points="22.2,24 21.2,25.4 31.1,34.5 32,33.2 	"/>
	<polygon points="31.1,24 32,25.4 22.2,34.5 21.2,33.2 	"/>
	<rect x="19.9" y="4.6" width="2.4" height="34.7"/>
</g>
<g>
	<g class="st0">
		<path d="M9.9,1.2h2V4h-1.4C8.5,4,8,4.9,8,6.4v10.1c0,3.5-1.9,5.1-3.9,5.4c-0.3,0-0.4,0.3,0,0.3C6,22.4,8,23.7,8,27.6v10.2
			c0,1.7,0.6,2.5,2.5,2.5h1.4V43H10c-3.1,0-5.1-1.9-5.1-4.9V27.8c0-2.2-1.4-4.5-4.5-4.5v-2.6c3.1,0,4.5-2,4.5-4.7V6.1
			C4.8,3.1,7,1.2,9.9,1.2z"/>
		<path d="M48.1,16c0,2.8,1.4,4.7,4.5,4.7v2.6c-3,0-4.5,2.3-4.5,4.5v10.3c0,3-2.1,4.9-5.1,4.9h-1.9v-2.8h1.4c1.9,0,2.5-0.8,2.5-2.5
			V27.6c0-3.9,2-5.2,3.9-5.4c0.4,0,0.3-0.3,0-0.3c-2-0.2-3.8-1.8-3.9-5.4V6.4C45,4.9,44.5,4,42.5,4h-1.4V1.2h2c2.9,0,5,1.8,5,4.8V16
			z"/>
	</g>
</g>
</svg>
